<svg xmlns="http://www.w3.org/2000/svg" width="14" height="14" viewBox="0 0 14 14" fill="none">
<path d="M13.5936 0.412493C13.464 0.281446 13.3097 0.177486 13.1396 0.106669C12.9694 0.0358516 12.7869 -0.000407515 12.6027 3.45474e-06H8.76119C8.5092 0.000473283 8.26756 0.100296 8.08871 0.277809L0.409208 7.95575C0.147168 8.21832 0 8.57414 0 8.9451C0 9.31606 0.147168 9.67187 0.409208 9.93445L4.06537 13.5906C4.32801 13.8528 4.68394 14 5.05503 14C5.42612 14 5.78205 13.8528 6.04469 13.5906L13.7211 5.9158C13.8989 5.73723 13.9991 5.49566 13.9998 5.24363V1.39997C14.0009 1.21666 13.9656 1.03496 13.8959 0.865428C13.8261 0.6959 13.7234 0.541936 13.5936 0.412493ZM10.9999 3.99991C10.8021 3.99991 10.6088 3.94126 10.4443 3.83138C10.2799 3.7215 10.1517 3.56533 10.076 3.3826C10.0003 3.19988 9.98054 2.99882 10.0191 2.80484C10.0577 2.61087 10.1529 2.43269 10.2928 2.29284C10.4326 2.15299 10.6108 2.05775 10.8048 2.01917C10.9988 1.98058 11.1998 2.00039 11.3826 2.07607C11.5653 2.15176 11.7215 2.27993 11.8313 2.44437C11.9412 2.60882 11.9999 2.80215 11.9999 2.99993C11.9999 3.26514 11.8945 3.51949 11.707 3.70702C11.5194 3.89455 11.2651 3.99991 10.9999 3.99991Z" fill="#D01515"/>
</svg>